<svg xmlns="http://www.w3.org/2000/svg" viewBox="0 0 64 64" role="img" aria-label="WhatsApp">
  <circle cx="32" cy="32" r="28" fill="#22c55e"/>
  <path fill="#ffffff" d="M20 47l2.4-8.1A17 17 0 1 1 28 43.5L20 47zm8.6-9.1l.8.5a11.8 11.8 0 1 0-3.8-3.8l.5.8-1.1 3.8 3.6-1.3z"/>
  <path fill="#ffffff" d="M27.3 23.2c.4-.9.7-1 1.3-1h1c.3 0 .8.1 1.2.8.4.7 1.5 3.5 1.6 3.8.1.3.2.6 0 1-.2.4-.4.6-.7.9-.3.3-.6.7-.9.9-.3.3-.6.6-.2 1.2.4.6 1.7 2.8 3.6 4.5 2.5 2.2 4.5 2.9 5.1 3.2.6.3 1 .2 1.3-.2.4-.5 1.5-1.8 1.9-2.4.4-.6.8-.5 1.3-.3.5.2 3.4 1.6 4 1.9.6.3 1 .4 1.1.7.1.3.1 1.8-.4 3.5-.5 1.7-3 3.2-4.2 3.3-1.1.1-2.5.5-8.2-1.7-6.9-2.7-11.2-9.7-11.5-10.2-.3-.5-2.8-3.8-2.8-7.2 0-3.4 1.7-5 2.3-5.7.6-.7 1.4-1 2.1-1z"/>
</svg>
